<mxfile host="app.diagrams.net" modified="2023-07-14T01:42:28.257Z" agent="Mozilla/5.0 (Windows NT 10.0; Win64; x64) AppleWebKit/537.36 (KHTML, like Gecko) Chrome/114.0.0.0 Safari/537.36" etag="UHKmfXa71VMmtYUJB0Zb" version="21.6.2" type="device">
  <diagram name="Page-1" id="HbUFPzHRWxl-eESFbfk5">
    <mxGraphModel dx="1034" dy="508" grid="1" gridSize="10" guides="1" tooltips="1" connect="1" arrows="1" fold="1" page="1" pageScale="1" pageWidth="850" pageHeight="1100" math="0" shadow="0">
      <root>
        <mxCell id="0" />
        <mxCell id="1" parent="0" />
        <mxCell id="l2GxKSGlaRxRyGF30L9L-31" value="" style="ellipse;html=1;shape=endState;fillColor=#000000;strokeColor=#ff0000;" parent="1" vertex="1">
          <mxGeometry x="70" y="65" width="30" height="30" as="geometry" />
        </mxCell>
        <mxCell id="l2GxKSGlaRxRyGF30L9L-33" value="" style="endArrow=open;endFill=1;endSize=12;html=1;rounded=0;exitX=1;exitY=0.5;exitDx=0;exitDy=0;entryX=0;entryY=0.5;entryDx=0;entryDy=0;" parent="1" source="l2GxKSGlaRxRyGF30L9L-31" edge="1">
          <mxGeometry width="160" relative="1" as="geometry">
            <mxPoint x="92" y="90" as="sourcePoint" />
            <mxPoint x="220" y="80" as="targetPoint" />
          </mxGeometry>
        </mxCell>
        <mxCell id="l2GxKSGlaRxRyGF30L9L-34" value="Paticipant" style="shape=umlActor;verticalLabelPosition=bottom;verticalAlign=top;html=1;" parent="1" vertex="1">
          <mxGeometry x="30" y="50" width="30" height="60" as="geometry" />
        </mxCell>
        <mxCell id="l2GxKSGlaRxRyGF30L9L-37" value="choose a survey from poll list" style="rounded=1;whiteSpace=wrap;html=1;arcSize=40;fontColor=#000000;fillColor=#ffffc0;strokeColor=#ff0000;" parent="1" vertex="1">
          <mxGeometry x="410" y="60" width="120" height="55" as="geometry" />
        </mxCell>
        <mxCell id="l2GxKSGlaRxRyGF30L9L-38" value="" style="edgeStyle=orthogonalEdgeStyle;html=1;verticalAlign=bottom;endArrow=open;endSize=8;strokeColor=#ff0000;rounded=0;" parent="1" source="l2GxKSGlaRxRyGF30L9L-37" edge="1">
          <mxGeometry relative="1" as="geometry">
            <mxPoint x="570" y="165" as="targetPoint" />
          </mxGeometry>
        </mxCell>
        <mxCell id="l2GxKSGlaRxRyGF30L9L-39" value="Has a token?" style="rhombus;whiteSpace=wrap;html=1;fontColor=#000000;fillColor=#ffffc0;strokeColor=#ff0000;" parent="1" vertex="1">
          <mxGeometry x="220" y="40" width="90" height="80" as="geometry" />
        </mxCell>
        <mxCell id="l2GxKSGlaRxRyGF30L9L-43" value="Yes" style="edgeStyle=orthogonalEdgeStyle;html=1;align=left;verticalAlign=bottom;endArrow=open;endSize=8;strokeColor=#ff0000;rounded=0;" parent="1" edge="1">
          <mxGeometry x="-1" relative="1" as="geometry">
            <mxPoint x="410" y="80" as="targetPoint" />
            <mxPoint x="310" y="80" as="sourcePoint" />
          </mxGeometry>
        </mxCell>
        <mxCell id="l2GxKSGlaRxRyGF30L9L-44" value="No" style="edgeStyle=orthogonalEdgeStyle;html=1;align=left;verticalAlign=top;endArrow=open;endSize=8;strokeColor=#ff0000;rounded=0;" parent="1" edge="1">
          <mxGeometry x="-1" relative="1" as="geometry">
            <mxPoint x="265" y="190" as="targetPoint" />
            <mxPoint x="264.5" y="120" as="sourcePoint" />
            <Array as="points">
              <mxPoint x="265" y="190" />
              <mxPoint x="265" y="190" />
            </Array>
            <mxPoint as="offset" />
          </mxGeometry>
        </mxCell>
        <mxCell id="l2GxKSGlaRxRyGF30L9L-47" value="Request a token" style="rounded=1;whiteSpace=wrap;html=1;arcSize=40;fontColor=#000000;fillColor=#ffffc0;strokeColor=#ff0000;" parent="1" vertex="1">
          <mxGeometry x="205" y="190" width="120" height="55" as="geometry" />
        </mxCell>
        <mxCell id="l2GxKSGlaRxRyGF30L9L-48" value="Answer the questions" style="rounded=1;whiteSpace=wrap;html=1;arcSize=40;fontColor=#000000;fillColor=#ffffc0;strokeColor=#ff0000;" parent="1" vertex="1">
          <mxGeometry x="510" y="166" width="120" height="55" as="geometry" />
        </mxCell>
        <mxCell id="l2GxKSGlaRxRyGF30L9L-51" value="Validation the answers&lt;br&gt;Ok or not?" style="rhombus;whiteSpace=wrap;html=1;fontColor=#000000;fillColor=#ffffc0;strokeColor=#ff0000;" parent="1" vertex="1">
          <mxGeometry x="490" y="260" width="180" height="100" as="geometry" />
        </mxCell>
        <mxCell id="l2GxKSGlaRxRyGF30L9L-55" value="No" style="edgeStyle=orthogonalEdgeStyle;html=1;align=left;verticalAlign=bottom;endArrow=open;endSize=8;strokeColor=#ff0000;rounded=0;entryX=1;entryY=0.5;entryDx=0;entryDy=0;" parent="1" target="l2GxKSGlaRxRyGF30L9L-48" edge="1">
          <mxGeometry x="-1" relative="1" as="geometry">
            <mxPoint x="650" y="181.5" as="targetPoint" />
            <mxPoint x="670" y="308" as="sourcePoint" />
            <Array as="points">
              <mxPoint x="670" y="309" />
              <mxPoint x="711" y="309" />
              <mxPoint x="711" y="194" />
              <mxPoint x="650" y="194" />
            </Array>
          </mxGeometry>
        </mxCell>
        <mxCell id="l2GxKSGlaRxRyGF30L9L-56" value="Yes&lt;br&gt;" style="edgeStyle=orthogonalEdgeStyle;html=1;align=left;verticalAlign=top;endArrow=open;endSize=8;strokeColor=#ff0000;rounded=0;" parent="1" edge="1">
          <mxGeometry x="-1" relative="1" as="geometry">
            <mxPoint x="579" y="420" as="targetPoint" />
            <mxPoint x="579" y="360" as="sourcePoint" />
          </mxGeometry>
        </mxCell>
        <mxCell id="l2GxKSGlaRxRyGF30L9L-57" value="Call API service to store answers into Database" style="rounded=1;whiteSpace=wrap;html=1;arcSize=40;fontColor=#000000;fillColor=#ffffc0;strokeColor=#ff0000;" parent="1" vertex="1">
          <mxGeometry x="503" y="420" width="160" height="80" as="geometry" />
        </mxCell>
        <mxCell id="l2GxKSGlaRxRyGF30L9L-59" value="" style="edgeStyle=orthogonalEdgeStyle;html=1;align=left;verticalAlign=top;endArrow=open;endSize=8;strokeColor=#ff0000;rounded=0;" parent="1" edge="1">
          <mxGeometry x="-1" relative="1" as="geometry">
            <mxPoint x="580.5" y="259" as="targetPoint" />
            <mxPoint x="581" y="224" as="sourcePoint" />
            <Array as="points">
              <mxPoint x="580.5" y="259" />
              <mxPoint x="580.5" y="259" />
            </Array>
            <mxPoint as="offset" />
          </mxGeometry>
        </mxCell>
      </root>
    </mxGraphModel>
  </diagram>
</mxfile>
